<svg id="Layer_1" data-name="Layer 1" xmlns="http://www.w3.org/2000/svg" xmlns:xlink="http://www.w3.org/1999/xlink" viewBox="0 0 443.03 144"><defs><style>.cls-1{fill:url(#linear-gradient);}.cls-2{fill:url(#linear-gradient-2);}.cls-3{fill:url(#linear-gradient-3);}.cls-4{fill:url(#linear-gradient-4);}.cls-5{fill:url(#linear-gradient-5);}.cls-6{fill:#5b5b5b;}.cls-7{opacity:0.99;fill:url(#radial-gradient);}.cls-8{fill:url(#radial-gradient-2);}.cls-9{fill:url(#linear-gradient-6);}.cls-10{fill:url(#linear-gradient-7);}</style><linearGradient id="linear-gradient" x1="452.94" y1="79.42" x2="50.31" y2="82.42" gradientUnits="userSpaceOnUse"><stop offset="0" stop-color="#ffd400"/><stop offset="0.68" stop-color="#ffa700"/><stop offset="1" stop-color="orange"/></linearGradient><linearGradient id="linear-gradient-2" x1="452.95" y1="79.89" x2="50.31" y2="82.89" xlink:href="#linear-gradient"/><linearGradient id="linear-gradient-3" x1="452.95" y1="80.34" x2="50.31" y2="83.33" xlink:href="#linear-gradient"/><linearGradient id="linear-gradient-4" x1="452.95" y1="80.84" x2="50.32" y2="83.83" xlink:href="#linear-gradient"/><linearGradient id="linear-gradient-5" x1="452.96" y1="81.31" x2="50.32" y2="84.31" xlink:href="#linear-gradient"/><radialGradient id="radial-gradient" cx="69.03" cy="58.41" r="66.67" xlink:href="#linear-gradient"/><radialGradient id="radial-gradient-2" cx="56.94" cy="74.04" fx="45.150229447260116" r="106.59" xlink:href="#linear-gradient"/><linearGradient id="linear-gradient-6" x1="80.62" y1="11.85" x2="54.13" y2="45.42" xlink:href="#linear-gradient"/><linearGradient id="linear-gradient-7" x1="92.42" y1="21.16" x2="65.93" y2="54.73" xlink:href="#linear-gradient"/></defs><title>logoantext</title><path class="cls-1" d="M157.12,101.58h-23l-3.7,10.9H114.66L137,50.77h17.4l22.33,61.71H160.81ZM145.6,67.39,138,90h15.21Z"/><path class="cls-2" d="M247.48,50.77v61.71h-15L207.31,74.42v38.06h-15V50.77h15L232.45,89V50.77Z"/><path class="cls-3" d="M263.84,50.77h47.73v12H295.22v49.66h-15V62.82H263.84Z"/><path class="cls-4" d="M365.72,62.82H343V75.3h20.13V86.9H343v13.54h22.77v12h-37.8V50.77h37.8Z"/><path class="cls-5" d="M409.5,93.58l-11.08,18.9H381.37L401.15,81.1,380.93,50.77h17.49l12.4,18.64,10.9-18.64h17l-19.6,31.12,20.39,30.59H422.07Z"/><path class="cls-6" d="M123.39,135.82h-5.72l-1.1,3h-1.33l4.59-12.43h1.42l4.58,12.43h-1.34ZM120.53,128l-2.48,6.8h5Z"/><path class="cls-6" d="M144.45,132.92h-6.82v5.89h-1.26V126.22h1.26v5.65h6.82v-5.65h1.27v12.59h-1.27Z"/><path class="cls-6" d="M158.91,138.81h-1.26v-1.73A3.55,3.55,0,0,1,154.3,139c-2.23,0-4-1.37-4-4.25V129h1.24v5.6c0,2.18,1.19,3.29,3,3.29s3.12-1.15,3.12-3.55V129h1.26Z"/><path class="cls-6" d="M168.74,128.83c2.7,0,4.68,2,4.68,5s-2,5.08-4.68,5.08a4.12,4.12,0,0,1-3.91-2.3v2.16h-1.24V125.48h1.24v5.67A4.18,4.18,0,0,1,168.74,128.83Zm-.26,1.1a4,4,0,0,0,0,7.92c2.08,0,3.66-1.49,3.66-4A3.59,3.59,0,0,0,168.48,129.93Z"/><path class="cls-6" d="M188.57,139a5.06,5.06,0,1,1,5-5.06A4.79,4.79,0,0,1,188.57,139Zm0-1.1a4,4,0,0,0,0-7.92c-1.87,0-3.62,1.26-3.62,4S186.7,137.85,188.57,137.85Z"/><path class="cls-6" d="M198,130h-1.37V129H198v-.69c0-2.11,1-3.11,3.47-3.11v1.08c-1.67,0-2.21.61-2.21,2V129h2.29V130h-2.29v8.77H198Z"/><path class="cls-6" d="M223.39,129.89h-1.48a4.42,4.42,0,0,0-4.25-2.66c-2.79,0-4.93,2-4.93,5.28s2.14,5.29,4.93,5.29a4.64,4.64,0,0,0,4.79-4.65h-5.29v-1h6.63v.92a6,6,0,0,1-6.13,5.88,6.43,6.43,0,0,1,0-12.85A5.84,5.84,0,0,1,223.39,129.89Z"/><path class="cls-6" d="M227.88,125.48h1.27v13.33h-1.27Z"/><path class="cls-6" d="M238.11,139a5.06,5.06,0,1,1,4.95-5.06A4.79,4.79,0,0,1,238.11,139Zm0-1.1a4,4,0,0,0,0-7.92c-1.87,0-3.62,1.26-3.62,4S236.24,137.85,238.11,137.85Z"/><path class="cls-6" d="M252.31,128.83c2.7,0,4.69,2,4.69,5s-2,5.08-4.69,5.08a4.11,4.11,0,0,1-3.9-2.3v2.16h-1.25V125.48h1.25v5.67A4.17,4.17,0,0,1,252.31,128.83Zm-.25,1.1a4,4,0,0,0,0,7.92c2.07,0,3.66-1.49,3.66-4A3.59,3.59,0,0,0,252.06,129.93Z"/><path class="cls-6" d="M265.24,128.83a4.1,4.1,0,0,1,3.89,2.31V129h1.26v9.83h-1.26v-2.18a4.16,4.16,0,0,1-3.91,2.32c-2.68,0-4.68-2-4.68-5.08S262.54,128.83,265.24,128.83Zm.23,1.1c-2.07,0-3.65,1.44-3.65,3.94s1.58,4,3.65,4a4,4,0,0,0,0-7.92Z"/><path class="cls-6" d="M275.06,125.48h1.26v13.33h-1.26Z"/><path class="cls-6" d="M298.11,132.54c0,3.91-2.47,6.27-6.66,6.27h-3.73V126.22h3.73C295.64,126.22,298.11,128.6,298.11,132.54Zm-6.66,5.22c3.56,0,5.38-2,5.38-5.22s-1.82-5.28-5.38-5.28H289v10.5Z"/><path class="cls-6" d="M301.94,126.18a.92.92,0,0,1,1.84,0,.92.92,0,1,1-1.84,0Zm.29,2.8h1.26v9.83h-1.26Z"/><path class="cls-6" d="M312.27,128.83a4.13,4.13,0,0,1,3.89,2.29V129h1.26v10.08a4.35,4.35,0,0,1-4.59,4.57c-2.54,0-4.3-1.29-4.7-3.35h1.24a3.37,3.37,0,0,0,3.46,2.26,3.21,3.21,0,0,0,3.33-3.48v-2.43a4.13,4.13,0,0,1-3.89,2.32c-2.7,0-4.7-2-4.7-5.08S309.57,128.83,312.27,128.83Zm.24,1.1a3.59,3.59,0,0,0-3.66,3.94c0,2.49,1.59,4,3.66,4a4,4,0,0,0,0-7.92Z"/><path class="cls-6" d="M321.81,126.18a.92.92,0,0,1,1.84,0,.92.92,0,1,1-1.84,0Zm.29,2.8h1.26v9.83H322.1Z"/><path class="cls-6" d="M328.38,130H327V129h1.37v-2.47h1.28V129h2.7V130h-2.7v6.1c0,1.21.41,1.59,1.55,1.59h1.15v1.08H331c-1.71,0-2.63-.7-2.63-2.67Z"/><path class="cls-6" d="M340.35,128.83a4.09,4.09,0,0,1,3.89,2.31V129h1.26v9.83h-1.26v-2.18a4.14,4.14,0,0,1-3.91,2.32c-2.68,0-4.68-2-4.68-5.08S337.65,128.83,340.35,128.83Zm.24,1.1a3.59,3.59,0,0,0-3.66,3.94c0,2.49,1.59,4,3.66,4a4,4,0,0,0,0-7.92Z"/><path class="cls-6" d="M350.18,125.48h1.26v13.33h-1.26Z"/><path class="cls-6" d="M362.83,126.22h6.81v1h-5.55V132h4.69v1h-4.69v5.8h-1.26Z"/><path class="cls-6" d="M373.22,126.18a.92.92,0,0,1,1.84,0,.92.92,0,1,1-1.84,0Zm.29,2.8h1.26v9.83h-1.26Z"/><path class="cls-6" d="M386.8,133.19c0-2.18-1.19-3.3-3-3.3s-3.12,1.16-3.12,3.55v5.37h-1.26V129h1.26v1.67A3.6,3.6,0,0,1,384,128.8c2.23,0,4,1.36,4,4.25v5.76H386.8Z"/><path class="cls-6" d="M396.75,128.83a4.1,4.1,0,0,1,3.89,2.31V129h1.26v9.83h-1.26v-2.18a4.16,4.16,0,0,1-3.91,2.32c-2.68,0-4.68-2-4.68-5.08S394.05,128.83,396.75,128.83Zm.23,1.1c-2.07,0-3.65,1.44-3.65,3.94s1.58,4,3.65,4a4,4,0,0,0,0-7.92Z"/><path class="cls-6" d="M413.94,133.19c0-2.18-1.19-3.3-3-3.3s-3.11,1.16-3.11,3.55v5.37h-1.27V129h1.27v1.67a3.59,3.59,0,0,1,3.34-1.85c2.24,0,4,1.36,4,4.25v5.76h-1.24Z"/><path class="cls-6" d="M424,128.83a4.25,4.25,0,0,1,4.52,3.35h-1.35a3,3,0,0,0-3.17-2.27c-1.93,0-3.5,1.32-3.5,4s1.57,4,3.5,4a3,3,0,0,0,3.17-2.29h1.35A4.31,4.31,0,0,1,424,139c-2.78,0-4.78-1.94-4.78-5.06S421.19,128.83,424,128.83Z"/><path class="cls-6" d="M436.85,139c-2.79,0-4.82-1.94-4.82-5.06s2-5.06,4.82-5.06a4.42,4.42,0,0,1,4.65,4.56,7.79,7.79,0,0,1,0,1h-8.15a3.43,3.43,0,0,0,3.54,3.51,3,3,0,0,0,3.17-2.2h1.34A4.32,4.32,0,0,1,436.85,139Zm-3.54-5.6h6.91a3.21,3.21,0,0,0-3.42-3.44A3.39,3.39,0,0,0,433.31,133.35Z"/><path class="cls-7" d="M74.43,53.19a10.21,10.21,0,1,1-.92-.69,21.62,21.62,0,1,0,.92.69Z"/><path class="cls-8" d="M103.44,61.57c-7.75-1.11-14.5-5.18-18.68-8.26a47.59,47.59,0,0,0-4.45-3.69h0A49.41,49.41,0,0,0,60.89,41,59,59,0,0,0,45,40.38c-1.23.15-2.45.33-3.65.57l.06-.08a42.15,42.15,0,0,0-11.65,3.72l-.63.48A50.38,50.38,0,0,0,24,48h0A49.57,49.57,0,1,0,99,77.23h0C108.13,63.32,103.44,61.57,103.44,61.57Zm-44.85,37A26.49,26.49,0,1,1,85.07,72,26.49,26.49,0,0,1,58.59,98.53Z"/><path class="cls-9" d="M92.5,28.75C67.45,26.69,59.44,0,59.44,0,47.41,27.74,36.37,39.61,30,44.6a41.79,41.79,0,0,1,11.64-3.71C52.37,27.5,58.73,8.42,58.73,8.42,76.89,40,91.47,36.35,91.47,36.35,95,34.29,92.5,28.75,92.5,28.75ZM51.05,40a47,47,0,0,0-6.53.45,58.37,58.37,0,0,1,17.08.68,46.4,46.4,0,0,0-5.82-.9A60.63,60.63,0,0,0,69.9,25.82l-2.26-2.88C60.35,33.65,54.36,38.18,51.05,40Z"/><path class="cls-10" d="M110.82,28C86.34,24.64,80.18,0,80.18,0a166.7,166.7,0,0,1-9.06,17.48h0a14.27,14.27,0,0,0,2.68,2.45A93.88,93.88,0,0,0,80,8.16C95.73,38.34,109,36,109,36,113.59,33.72,110.82,28,110.82,28Z"/></svg>